<?xml version="1.0" encoding="utf-8"?>

<!DOCTYPE svg PUBLIC "-//W3C//DTD SVG 1.1//EN" "http://www.w3.org/Graphics/SVG/1.1/DTD/svg11.dtd">
<svg version="1.1" id="Layer_1" xmlns="http://www.w3.org/2000/svg" xmlns:xlink="http://www.w3.org/1999/xlink" x="0px" y="0px"
	 viewBox="-37.5631 -47.1251 1095.1261 1374.2502" enable-background="new -37.5631 -47.1251 1095.1261 1374.2502"
	 xml:space="preserve">
<g>
	<path fill="#1F1A17" stroke="#1F1A17" stroke-width="0.394" d="M553.61,0h17.76c16.66,1.73,33.27,5.14,48.59,12.08
		c32.72,14.31,59.66,41.28,73.85,74.06c15.8,35.75,15.9,77.97,0.42,113.84c59.58,33.3,112.07,79.34,152.14,134.64
		c37.48,51.45,64.38,110.63,78.19,172.79c21.55,95.95,12.07,198.7-27.31,288.86c-13.58,31.19-30.52,60.94-50.55,88.44
		c-2.64,3.59-5.41,7.08-7.73,10.89c11.96-1.68,24.02-0.55,36.04-1.12c36.37-0.72,72.63,13.53,99.19,38.31
		c23.45,21.6,39.14,51.32,44.08,82.8c0.73,4.97,1.25,9.97,1.72,14.9799v15.8401c-2.4,35.5399-17.98,70.15-43.82,94.7899
		c-4.38,4.65-9.78,8.1801-14.36,12.5801c-1.74,5.6699-1.98,11.72-3.65,17.4399c-7.75,31.1801-26.34,59.54-51.88,79.05
		c-15.58,11.9399-33.64,20.61-52.68,25.36c-9.53,2.48-19.36,3.47-29.14,4.37h-6.86c-4.39-1.21-9.01-1.66-13.36,0h-15.63
		c-16.86-1.72-33.63-5.35-49.07-12.49c-18.59-8.17-35.02-20.65-48.77-35.5c-12.14,2.14-24.4901,2.6899-36.79,2.21
		c-17.89,1.05-36-0.6899-53.1-6.1699c-29.91-9.3201-56.6-28.67-74.6-54.3301c-11.7-16.58-19.77-35.6799-23.6-55.6
		c-2.93-13.51-2.73-27.4-2.25-41.13c-48.27,2.99-97.05-0.75-144.04-12.4c-56.34-13.71-109.99-38.25-157.39-71.6299
		c-56.67-39.79-104.3-92.34-138.39-152.6C24.24,776.32,3.38,703.54,0.49,629.94c-0.09-2.52-0.3-5.02-0.49-7.52v-20.86
		c0.65-17.54,1.56-35.1,3.98-52.5c7.67-59.95,27.33-118.3,57.29-170.77c33.55-58.92,80.07-110.4,135.3-149.72
		c60.25-43.11,130.92-71.55,204.28-81.96c0.86-11.41,2.56-22.8,5.95-33.76c9.55-32.2,30.89-60.68,59.03-78.99
		c6.27-4.25,13.2-7.37,19.56-11.48C499.97,13.07,516.26,6.42,533.22,3C539.94,1.56,546.8,0.9,553.61,0 M507.85,14.92
		c3.4-0.3,6.67-1.32,10-1.98c30.48-5.65,62.8-1.31,90.5,12.68c29.75,14.79,53.9901,40.28,67.3,70.72
		c6.64,14.8,10.22,30.79,11.85,46.88c0.28,7.15,0.29,14.31,0.01,21.46c-1.55,15.63-4.95,31.16-11.23,45.6
		c-7.05,16.71-17.4901,31.87-30.1201,44.84c24.44-17.81,42.32-44.31,50.57-73.36c9.81-34.22,5.9-72.15-10.88-103.57
		c-14.6-27.67-38.74-50.17-67.41-62.7C583.79,0.18,542.58-0.37,507.85,14.92 M517.91,16.74c-31.55,5.92-60.72,23.3-81.16,48.02
		c-19,22.74-30.47,51.69-31.98,81.29c-1.97,31.82,7.47,64.18,26.27,89.93c22.88,31.88,59.7,53.31,98.79,57.14
		c0.11,0.45,0.32,1.34,0.43,1.79c3.87,0.71,7.83,0.39,11.74,0.43c5.75-0.1,11.54,0.31,17.27-0.46c-0.64-0.39-1.92-1.18-2.55-1.57
		c40.4-3.36,78.6-25.55,101.78-58.76c22.84-32.01,30.95-73.91,21.9-112.16c-7.85-34.45-29.47-65.44-58.96-84.87
		C591.42,17.37,553.37,9.79,517.91,16.74 M218.96,222.95c-62.33,39.71-114.41,95.29-150.14,159.97
		c-28.85,51.97-47.05,109.79-53.33,168.89c-4.94,48.77-4.1,98.42,5.69,146.56c13.8,72.02,46.06,140.32,92.07,197.37
		c41.22,51.18,93.59,93.33,152.46,122.53c47.65,23.7,99.52,38.85,152.42,44.58c10.12,0.88,20.29,2.34,30.46,1.9601
		c12.89,0.99,25.93,0.98,38.83,0c5,0.5699,10.01-0.39,15.02-0.4601c1.5-7.01,3.32-13.95,5.57-20.76
		c6.26-17.1699,15.43-33.33,27.51-47.09c21.22-24.45,51.01-41.22,82.89-46.81c11.75-2.2,23.7401-2.5,35.65-2.05
		c22.28-1.63,44.85,2.15,65.51,10.62c3.97,1.76,7.85,3.68,11.76,5.59c1.38,1.04,2.07-1.0099,2.74-1.8199
		c11.88-19.23,28.49-35.4901,47.89-47.08c11.75-7.2,24.7-12.11,37.85-16.05c25.27-30.07,46.03-63.9301,62.48-99.59
		c20.7-45.21,33.86-93.87,38.79-143.35c0.76-9.52,2.03-19.07,1.72-28.61c0.78-11.54,0.79-23.16,0.01-34.69
		c0.32-9.28-0.91-18.55-1.62-27.79c-7-72.52-31.92-143.21-71.89-204.12c-40.34-61.8-95.92-113.57-160.46-149.39
		c-1.52,2.5-2.98,5.04-4.41,7.6c-12.83,20.66-30.95,37.79-51.96,49.96c23.11,4.92,46.1801,10.16,68.89,16.73
		c3.6,1.12,7.67,1.71,10.44,4.53c2.05,1.98,2.76,5.2,5.53,6.44c20.39,11.8,34.64,31.78,44.14,52.94
		c9.92,22.12,15.4901,45.93,19.23,69.8c3.63,23.69,5.3,47.64,6,71.59c0.05,3.82,0.72,7.93-1.3,11.42
		c-5.34,10.69-10.4301,21.53-15.91,32.16c-3.16,5.85-12.15,6.37-16.18,1.18c-35.25-37.31-77.02-68.71-123.58-90.5
		c-42.65-20.05-88.91-31.94-135.75-36.55c-6.66-0.47-11.05-8.54-7.72-14.37c5.12-10.54,10.35-21.04,15.47-31.58
		c0.97-2.22,2.75-3.91,4.71-5.27c21.53-15.89,43.84-30.81,67.39-43.57c2.53-1.43,5.35-2.43,7.55-4.4
		c-35.24-4.84-70.79-7.7-106.37-7.61c-50.54-0.26-101.03,4.93-150.64,14.41c0.75,0.7,1.56,1.33,2.44,1.9
		c17.82,10.49,34.86,22.27,51.52,34.53c1.97,1.34,3.61,3.15,4.61,5.34c5.03,10.3,10.09,20.58,15.15,30.86
		c2.16,3.93,1.52,9.28-1.92,12.29c-3.29,3.22-8.2,2.59-12.38,3.28c-59.8,6.58-118.43,25.79-169.47,57.83
		c-30.65,19.1-58.52,42.49-83.33,68.68c-4.19,5.16-13.25,4.25-16.19-1.74c-5.22-10.21-10.1-20.59-15.25-30.84
		c-1.21-2.26-2.04-4.77-1.83-7.37c0.64-31.2,2.96-62.47,8.98-93.13c4.35-21.54,10.53-42.94,20.82-62.46
		c7.64-14.52,17.77-27.99,30.93-37.95c13.31-10.2,29.64-16.26,46.33-17.61c0.34,0.23,1.03,0.69,1.37,0.92
		c4.27,0.38,8.57,0.04,12.86,0.18c2.08-0.1,4.42,0.33,6.19-1.06c7.52,0.43,14.93,1.95,22.27,3.6c2.13,0.6,4.24-0.36,6.31-0.8
		c61.19-16.29,124.13-26.05,187.4-28.75c-24.7-25.67-39.83-60.64-40.22-96.37C336.39,165.17,273.73,187.97,218.96,222.95
		 M284.81,287.83c-4.11,0.99-8.3,1.69-12.29,3.14c9.73,4.41,19.75,8.22,29.17,13.31c2.47,1.19,5.01,3.16,7.92,2.33
		c61.52-12.79,124.55-18.94,187.38-16.85c-13.56-5.15-26.7-11.67-38.25-20.52c-2-1.47-4.01-3.44-6.7-3.14
		C395.75,267.7,339.65,275.1,284.81,287.83 M613.65,279.67c-10.35,5.7-21.36,10.28-32.84,13.16c-3.36,0.78-6.75,1.48-9.97,2.75
		c9.47,1.27,18.94,2.55,28.36,4.16c3.32,0.69,6.4-1,9.39-2.16c10.1-4.15,20.56-7.38,31.21-9.78c3.44-0.76,6.98-1.13,10.31-2.38
		c-9.54-2.11-19.13-3.9-28.69-5.87C618.86,279.15,616.04,278.19,613.65,279.67 M204.71,288.39c0.64,0.29,1.91,0.88,2.55,1.18
		c-12.24,0.99-24.37,4.36-34.98,10.63c-17.39,10.1-29.85,26.86-38.43,44.73c-9.14,19.09-14.62,39.7-18.46,60.44
		c-5.06,27.93-7.12,56.33-7.71,84.68c-0.26,2.81,1.53,5.18,2.62,7.63c4.55,8.84,8.49,18.02,13.37,26.68
		c39.67-42.28,87.72-77.01,141.29-99.46c39.52-16.75,81.73-26.75,124.4-31.03c-4.51-9.54-9.3-18.93-13.86-28.44
		c-0.89-1.68-1.53-3.63-3.15-4.76c-18.76-13.88-38.12-26.99-58.41-38.55c-27.93-15.71-57.99-29.42-90.25-32.5
		c0.62-0.31,1.87-0.92,2.49-1.23C219.05,287.86,211.84,287.78,204.71,288.39 M659.2,293.17c-0.05,0.4-0.15,1.21-0.2,1.61
		c-13.89,1.33-27.47,4.99-40.58,9.68c-37.78,13.96-71.87,36.09-104.29,59.66c-1.51,1.11-3.21,2.16-3.98,3.96
		c-5.06,10.24-10.05,20.52-15.11,30.77c63.53,6.04,126.02,25.88,180.19,59.86c31.59,19.59,60.2,43.74,85.78,70.65
		c4.77-9.41,9.25-18.95,14-28.36c0.88-1.89,2.1-3.79,1.86-5.96c-0.7-27-2.48-54.04-7.05-80.68c-3.69-21.27-9.01-42.42-18.03-62.09
		c-7.05-15.24-16.6-29.7-29.7599-40.33c-11.85-9.71-26.64-15.59-41.84-17.11c-0.13-0.43-0.39-1.27-0.52-1.69
		C672.9,292.49,665.96,292.41,659.2,293.17 M807.1,907.03c-29.64,10.81-55.09,32.17-71.35,59.16c9.46,5.76,18.68,12.07,26.61,19.86
		c4.8-7.87,10.05-15.54,16.56-22.12c12.78-13.3,29.1-23.13,46.81-28.28c24.09-7.12,50.71-5.37,73.59,5.03
		c27.17,12.01,48.7,35.93,57.76,64.22c8.06,24.52,6.94,52.03-3.55,75.66c-0.5601,1.33-1.48,2.7899-0.64,4.2599
		c5.29,13.9401,8.55,28.67,9.32,43.5801c8.38-9.4501,15.0099-20.37,20.38-31.77c15.95-34.04,17.0099-74.56,3.22-109.49
		c-12.35-32.02-37.04-58.98-67.8-74.16C883.98,895.72,842.79,893.59,807.1,907.03 M891.93,899.23c23.23,6.03,44.86,18.05,62.3,34.53
		c23.48,22.05,39.03,52.27,43.5,84.16c5.47,37.27-4.64,76.42-27.38,106.44c-2.39,3.52-5.66,6.42-7.8199,10.08
		c-0.25,4.65-0.22,9.3201-0.48,13.9801c18.09-13.63,32.34-32.14,41.75-52.7001c15.79-34.25,16.61-74.95,2.41-109.87
		c-12.61-31.94-37.59-58.68-68.5-73.59C923.36,905.43,907.84,900.35,891.93,899.23 M845.09,935.66
		c-33.19,3.1201-64.06,23.67-79.78,53.06c2.24,2.15,4.03,4.92,6.76,6.4901c8.59-1.16,17.22-2.46,25.93-2.22
		c11.68,0.43,23.38-0.68,35.05,0.41c1.8,0.5,2.05-1.69,2.58-2.82c4.19-12.27,14.31-22.81,27.17-25.75
		c9.54-2.59,19.3,0.48,28.15,4.01c2.07-1.63,2.87-4.4901,4.3-6.6801c2.99,1.47,5.89,3.1201,8.71,4.9c-1.32,2.32-2.63,4.65-3.96,6.97
		c6.48,4.8199,12.64,10.66,15.65,18.34c3.99,9.43,3.27,20.33-0.63,29.67c-5.41-2.08-10.79-4.24-16.21-6.27
		c0.86-4.26,2.48-8.42,2.24-12.82c0.08-5.28-2.37-10.28-5.83-14.14c-0.78-0.64-1.6899-2.4-2.84-1.48
		c-3.81,6.48-7.49,13.05-11.22,19.59c30.51,14.72,55.44,40.3901,69.13,71.3901c14.4-31.8301,9.82-70.91-10.24-99.3201
		C919.29,948.87,881.51,931.33,845.09,935.66 M585.72,963.72c-27.87,12.52-51.25,34.57-65.52,61.5601
		c-18.51,34.22-21.45,76.26-8.22,112.8199c11.18,31.6801,34.3,58.91,63.74,75.09c32.75,18.41,73.19,22.79,108.9901,11.2401
		c-7.06-9.02-12.83-18.9801-17.64-29.3601c-29.58,6.9401-61.9,0.1801-86.36-17.7999c-27.53-19.77-44.42-53.36-43.83-87.26
		c-0.12-37.92,22.04-74.8,55.44-92.69c23.99-13.17,53.13-16.68,79.51-9.28c18.16,4.91,34.74,14.94,48.05,28.18
		c9.48-6.37,19.9-11.1899,30.58-15.17c-19.32-23.36-46.69-39.8-76.22-46.49C644.78,947.84,613.19,951.18,585.72,963.72
		 M679.92,952.2c29.02,7.44,55.42,24.44,74.44,47.56c4.23-1.25,8.48-2.43,12.81-3.34c-3.33-4.47-7.69-8.03-11.8-11.74
		c-15.25-13.03-33.31-22.77-52.59-28.3C695.29,954.45,687.71,952.27,679.92,952.2 M866.58,980.54c-7.3,2.34-12.9,8.7401-14.74,16.12
		c6.84,1.51,13.49,3.77,20.05,6.21c4.09-7.22,8.5-14.26,12.21-21.67C878.49,979.34,872.26,978.4,866.58,980.54 M586.96,1004.91
		c-16.5,10.7401-29.66,26.43-37.61,44.43c-7.74,17.28-10.33,36.7201-7.88,55.4601c2.6801,19.2,10.72,37.6699,23.25,52.5
		c11.34,13.5499,26.3,24.01,42.84,30.21c18.33,6.98,38.58,8.1799,57.76,4.3c-0.8-3.67-2.38-7.0901-3.52-10.64
		c-2.91-8.92-5.01-18.12-6.01-27.4501c-5.43,2.11-10.82,4.65-16.72,5.01c-8.28,0.9301-16.41-1.54-23.89-4.87
		c-2.8,4.83-5.58,9.6801-8.32,14.5601c-3.07-1.28-5.88-3.04-8.72-4.7201c2.51-5.0299,5.59-9.75,8.25-14.71
		c-6.73-5.73-13.93-11.6-17.48-19.9399c-4.91-11.7201-3.33-25.24,2.21-36.4401c5.63,1.5,11.05,3.67,16.56,5.5701
		c-2.53,6.61-4.76,13.6399-3.91,20.8199c0.82,6.74,4.1,13.51,9.92,17.3c8.82-15.49,17.87-30.8601,26.51-46.4301
		c-1.38-2.76-4.25-4.47-6.11-6.91c-6.15-7.4299-12.31-15.9199-12.69-25.95c-0.62-17.85,12.49-35.69,30.2-39.35
		c9.36-2.15,18.88,0.77,27.45,4.44c1.43-2.28,2.8-4.59,4.13-6.93c2.93,1.54,5.81,3.18,8.62,4.95c-1.3,2.3-2.6,4.61-3.9,6.9301
		c3.06,2.46,6.06,5.01,8.88,7.76c6.03-6.15,12.9399-11.29,19.64-16.66c-15.25-15.22-35.33-25.54-56.62-28.92
		C634.7,985.12,608.17,990.88,586.96,1004.91 M704.56,1032.61c-26.16,23.5-42.94,57.17-45.72,92.24c-0.44,0.1-1.31,0.3-1.75,0.4
		c-0.66,7.64-0.71,15.41,0.06,23.0601c0.37-0.64,1.13-1.9301,1.5-2.5701c2.19,33.0701,16.48,65.21,39.81,88.8
		c25.42,25.8999,61.21,41.4399,97.55,41.74c36.95,0.6899,73.89-14.1,100.13-40.13c23.14-22.65,37.8-53.54,41.15-85.72l1.01,0.7699
		c0.88-4.0199,0.47-8.1399,0.47-12.21c-0.08-5.4299,0.24-10.86-0.13-16.27c-0.31,0.42-0.92,1.27-1.23,1.6901
		c-2.8799-31.87-16.78-62.7101-39.2599-85.5601c-25.02-25.72-60.25-41.35-96.1801-42.08C766.5,995.63,730.86,1008.79,704.56,1032.61
		 M834.03,997.3c7.54,2.64,15.33,4.61,22.55,8.13c17.35,7.76,33.17,18.95,46.17,32.83c22.05,23.4299,35.85,54.5,38.32,86.6
		c-1.8,3.02-0.57,6.79-0.89,10.15c0.36,4.45-1,9.27,1,13.45c-3.33,40.26-24.45,78.6901-56.89,102.8101
		c-14.13,10.8099-30.47,18.35-47.39,23.59c30.95-3.64,60.39-18.54,82.11-40.85c23.17-23.73,37.59-55.91,39.45-89.0601
		c2.56-38.7899-12.06-78.35-39.3-106.1C896.73,1015.7,866.07,1000.76,834.03,997.3 M652.4,1034.4
		c-9.6801,4.26-15.64,15.95-12.98,26.26c1.69,5.5699,5.21,10.45,9.34,14.49c7.69-13.65,15.79-27.0801,23.23-40.87
		C665.71,1032.04,658.55,1031.4,652.4,1034.4 M656.38,1082.0699c1.99,2.25,4.12,4.38,6.46,6.29
		c5.5099-15.23,13.72-29.3199,23.49-42.2c-1.63-2.3301-3.42-4.54-5.45-6.52C672.37,1053.5699,664.53,1067.92,656.38,1082.0699
		 M622.39,1141.25c11.29,5.5699,26.27,0.45,32.2-10.54c0.71-5.22,0.6299-10.5399,1.67-15.73c0.18-2.4199,1.4-5.08,0.11-7.36
		c-2.25-4.02-5.11-7.7-8.33-10.98C639.38,1111.45,630.96,1126.4,622.39,1141.25 M681.07,1229.66c2.4-0.41,5.23-0.01,7.15-1.79
		C685.72,1227.9,683.35,1228.7,681.07,1229.66z"/>
	<path fill="#DEDEDD" stroke="#DEDEDD" stroke-width="0.394" d="M507.85,14.92c34.73-15.29,75.94-14.74,110.59,0.57
		c28.67,12.53,52.81,35.03,67.41,62.7c16.78,31.42,20.69,69.35,10.88,103.57c-8.25,29.05-26.13,55.55-50.57,73.36
		c12.63-12.97,23.07-28.13,30.1201-44.84c6.28-14.44,9.68-29.97,11.23-45.6c0.34,0.35,1.02,1.07,1.37,1.42
		c0.1-8.41,0.21-16.83-0.09-25.24c-0.32,0.59-0.97,1.77-1.29,2.36c-1.63-16.09-5.21-32.08-11.85-46.88
		c-13.31-30.44-37.55-55.93-67.3-70.72c-27.7-13.99-60.02-18.33-90.5-12.68C514.52,13.6,511.25,14.62,507.85,14.92z"/>
	<path fill="#FFFFFF" stroke="#FFFFFF" stroke-width="0.394" d="M517.91,16.74c35.46-6.95,73.51,0.63,103.53,20.78
		c29.49,19.43,51.11,50.42,58.96,84.87c9.05,38.25,0.94,80.15-21.9,112.16c-23.18,33.21-61.38,55.4-101.78,58.76
		c-8.95,0.84-17.96,0.75-26.89-0.19c-39.09-3.83-75.91-25.26-98.79-57.14c-18.8-25.75-28.24-58.11-26.27-89.93
		c1.51-29.6,12.98-58.55,31.98-81.29C457.19,40.04,486.36,22.66,517.91,16.74 M535.49,47.67c-21.73,1.69-42.81,10.36-59.5,24.35
		c-17.45,14.49-30.1,34.67-35.4,56.72c-5.91,24.15-3.1,50.36,8.02,72.62c10.51,21.37,28.4,38.99,49.94,49.15
		c19.69,9.39,42.32,12.48,63.82,8.74c20.83-3.53,40.51-13.48,55.71-28.15c23.9-22.62,36.24-56.75,32.14-89.42
		c-3.48-32.37-22.96-62.4-50.8799-79.06C580.34,51.06,557.64,45.79,535.49,47.67z"/>
	<path fill="#201A17" stroke="#201A17" stroke-width="0.394" d="M535.49,47.67c22.15-1.88,44.85,3.39,63.85,14.95
		c27.92,16.66,47.4,46.69,50.8799,79.06c4.1,32.67-8.24,66.8-32.14,89.42c-15.2,14.67-34.88,24.62-55.71,28.15
		c-21.5,3.74-44.13,0.65-63.82-8.74c-21.54-10.16-39.43-27.78-49.94-49.15c-11.12-22.26-13.93-48.47-8.02-72.62
		c5.3-22.05,17.95-42.23,35.4-56.72C492.68,58.03,513.76,49.36,535.49,47.67 M533.45,51.58c-13.8,1.47-27.3,5.7-39.4,12.52
		c-22.01,12.24-39.24,32.85-47.28,56.73c-7.51,21.8-7.33,46.15,0.5,67.84c8.76,24.94,27.66,46.06,51.35,57.74
		c21.58,10.78,47.01,13.48,70.4,7.64c28.35-6.85,53.2-26.52,66.57-52.42c11.44-21.64,14.45-47.42,8.93-71.21
		c-3.95-16.76-12.17-32.49-23.71-45.27C599.26,60.86,565.74,47.9,533.45,51.58z"/>
	<path fill="#AAA9A9" stroke="#AAA9A9" stroke-width="0.394" d="M533.45,51.58c32.29-3.68,65.81,9.28,87.36,33.57
		c11.54,12.78,19.76,28.51,23.71,45.27c5.52,23.79,2.51,49.57-8.93,71.21c-13.3701,25.9-38.22,45.57-66.57,52.42
		c-23.39,5.84-48.82,3.14-70.4-7.64c-23.69-11.68-42.59-32.8-51.35-57.74c-7.83-21.69-8.01-46.04-0.5-67.84
		c8.04-23.88,25.27-44.49,47.28-56.73C506.15,57.28,519.65,53.05,533.45,51.58 M540.96,68.7c-0.05,2.67-0.08,5.35-0.12,8.02
		c-5.55,0.59-11.11,1.62-16.28,3.76C514.46,84.43,506.79,93.6,504,104c-3.65,13.64-0.68,30.09,10.9,39.13
		c7.66,5.57,16.69,9.15,25.91,11.15c0.21,18.03,0.01,36.06,0.1,54.08c-6.19-0.42-11.79-3.82-15.85-8.39
		c-5.46-5.92-7.09-14.13-8.44-21.8c-5.57,1.08-11.13,2.24-16.75,2.99c-0.05,12.87,6.04,25.81,16.41,33.55
		c7.17,5.17,16.1,6.72,24.61,8.21c0.04,5.65-0.08,11.3,0.09,16.95c3.3,0.03,6.6,0.03,9.91-0.01c0.12-5.8-0.16-11.61,0.2-17.4
		c14.93-0.03,29.39-9,35.84-22.5c4.08-8.19,4.93-17.64,3.69-26.62c-1.56-10.06-7.44-19.48-16.22-24.76
		c-7.04-4.72-15.51-6.12-23.47-8.53c0.03-16.37-0.14-32.73,0.09-49.09c3.87,1.1,7.8,2.47,10.88,5.16
		c5.09,4.18,7.29,10.75,8.23,17.06c5.98-0.25,11.85-1.55,17.76-2.48c-1.41-8.64-4.85-17.2-11.3-23.3
		c-6.71-6.8-16.25-9.79-25.56-10.63c-0.1-2.68-0.1201-5.37-0.1201-8.05C547.59,68.55,544.27,68.55,540.96,68.7z"/>
	<path fill="#1F1A17" stroke="#1F1A17" stroke-width="0.394" d="M540.96,68.7c3.31-0.15,6.63-0.15,9.95,0.02
		c0,2.68,0.02,5.37,0.1201,8.05c9.31,0.84,18.85,3.83,25.56,10.63c6.45,6.1,9.89,14.66,11.3,23.3c-5.91,0.93-11.78,2.23-17.76,2.48
		c-0.94-6.31-3.14-12.88-8.23-17.06c-3.08-2.69-7.01-4.06-10.88-5.16c-0.23,16.36-0.06,32.72-0.09,49.09
		c7.96,2.41,16.43,3.81,23.47,8.53c8.78,5.28,14.66,14.7,16.22,24.76c1.24,8.98,0.39,18.43-3.69,26.62
		c-6.45,13.5-20.91,22.47-35.84,22.5c-0.36,5.79-0.08,11.6-0.2,17.4c-3.31,0.04-6.61,0.04-9.91,0.01
		c-0.17-5.65-0.05-11.3-0.09-16.95c-8.51-1.49-17.44-3.04-24.61-8.21c-10.37-7.74-16.46-20.68-16.41-33.55
		c5.62-0.75,11.18-1.91,16.75-2.99c1.35,7.67,2.98,15.88,8.44,21.8c4.06,4.57,9.66,7.97,15.85,8.39
		c-0.09-18.02,0.11-36.05-0.1-54.08c-9.22-2-18.25-5.58-25.91-11.15c-11.58-9.04-14.55-25.49-10.9-39.13
		c2.79-10.4,10.46-19.57,20.56-23.52c5.17-2.14,10.73-3.17,16.28-3.76C540.88,74.05,540.91,71.37,540.96,68.7 M524.16,100.14
		c-5.6299,7.1-6.08,17.65-1.79,25.5c3.79,6.82,11.39,10.03,18.46,12.33c0.12-15.7,0.09-31.4,0.01-47.1
		C534.43,91.9,528.07,94.78,524.16,100.14 M550.99,156.78c-0.13,17.19-0.11,34.39-0.01,51.59c4.96-0.6,9.79-2.52,13.57-5.83
		c9.09-7.58,11.68-21.44,6.95-32.09C567.68,162.56,558.78,159.32,550.99,156.78z"/>
	<path fill="#AAA9A9" stroke="#AAA9A9" stroke-width="0.394" d="M524.16,100.14c3.91-5.36,10.27-8.24,16.6801-9.27
		c0.08,15.7,0.11,31.4-0.01,47.1c-7.07-2.3-14.67-5.51-18.46-12.33C518.08,117.79,518.53,107.24,524.16,100.14z"/>
	<path fill="#F5F6F5" stroke="#F5F6F5" stroke-width="0.394" d="M687.5,143.22c0.32-0.59,0.97-1.77,1.29-2.36
		c0.3,8.41,0.19,16.83,0.09,25.24c-0.35-0.35-1.03-1.07-1.37-1.42C687.79,157.53,687.78,150.37,687.5,143.22z"/>
	<path fill="#AAA9A9" stroke="#AAA9A9" stroke-width="0.394" d="M550.99,156.78c7.79,2.54,16.69,5.78,20.51,13.67
		c4.73,10.65,2.14,24.51-6.95,32.09c-3.78,3.31-8.61,5.23-13.57,5.83C550.88,191.17,550.86,173.97,550.99,156.78z"/>
	<path fill="#FCEDEC" stroke="#FCEDEC" stroke-width="0.394" d="M218.96,222.95c54.77-34.98,117.43-57.78,182-65.35
		c0.39,35.73,15.52,70.7,40.22,96.37c-63.27,2.7-126.21,12.46-187.4,28.75c-2.07,0.44-4.18,1.4-6.31,0.8
		c-7.34-1.65-14.75-3.17-22.27-3.6c-6.79-0.59-13.63-0.65-20.42-0.04c-16.69,1.35-33.02,7.41-46.33,17.61
		c-13.16,9.96-23.29,23.43-30.93,37.95c-10.29,19.52-16.47,40.92-20.82,62.46c-6.02,30.66-8.34,61.93-8.98,93.13
		c-0.21,2.6,0.62,5.11,1.83,7.37c5.15,10.25,10.03,20.63,15.25,30.84c2.94,5.99,12,6.9,16.19,1.74
		c24.81-26.19,52.68-49.58,83.33-68.68c51.04-32.04,109.67-51.25,169.47-57.83c4.18-0.69,9.09-0.06,12.38-3.28
		c3.44-3.01,4.08-8.36,1.92-12.29c-5.06-10.28-10.12-20.56-15.15-30.86c-1-2.19-2.64-4-4.61-5.34
		c-16.66-12.26-33.7-24.04-51.52-34.53c-0.88-0.57-1.69-1.2-2.44-1.9c49.61-9.48,100.1-14.67,150.64-14.41
		c35.58-0.09,71.13,2.77,106.37,7.61c-2.2,1.97-5.02,2.97-7.55,4.4c-23.55,12.76-45.86,27.68-67.39,43.57
		c-1.96,1.36-3.74,3.05-4.71,5.27c-5.12,10.54-10.35,21.04-15.47,31.58c-3.33,5.83,1.06,13.9,7.72,14.37
		c46.84,4.61,93.1,16.5,135.75,36.55c46.56,21.79,88.33,53.19,123.58,90.5c4.03,5.19,13.02,4.67,16.18-1.18
		c5.48-10.63,10.57-21.47,15.91-32.16c2.02-3.49,1.35-7.6,1.3-11.42c-0.7-23.95-2.37-47.9-6-71.59
		c-3.74-23.87-9.31-47.68-19.23-69.8c-9.5-21.16-23.75-41.14-44.14-52.94c-2.77-1.24-3.48-4.46-5.53-6.44
		c-2.77-2.82-6.84-3.41-10.44-4.53c-22.71-6.57-45.78-11.81-68.89-16.73c21.01-12.17,39.13-29.3,51.96-49.96
		c3.73,2.91,7.77,5.34,11.77,7.86c13.62,9.18,26.95,18.83,39.44,29.52c14.35,11.57,27.22,24.77,40.14,37.88
		c50.11,53.56,86.7,119.66,105.43,190.57c15.89,59.85,19.07,122.97,9.74,184.16c-16.44,109.97-75.94,212.88-163.29,281.72
		c-2.98,2.2-5.91,4.54-8.09,7.59c-20.66-8.47-43.23-12.25-65.51-10.62c-11.91-0.45-23.9-0.15-35.65,2.05
		c-31.8799,5.59-61.67,22.36-82.89,46.81c-12.08,13.76-21.25,29.92-27.51,47.09c-14.35,0.39-28.62,2.73-43.01,2.51
		c-57.69,1.47-115.71-8.51-169.44-29.63c-61.2-23.66-116.72-61.62-161.62-109.41C84.7,854.61,48.36,790.16,29.22,720.79
		c-2.69-8.88-4.44-17.99-6.81-26.95c-0.43,1.5-0.86,3-1.23,4.53c-9.79-48.14-10.63-97.79-5.69-146.56
		c6.28-59.1,24.48-116.92,53.33-168.89C104.55,318.24,156.63,262.66,218.96,222.95 M354.42,499.56c-7.55,1.13-14.53,4.32-21.47,7.33
		c-6.09,2.79-11.48,7.16-15.35,12.64c-2.6,3.65-4.18,7.8799-6.27,11.83c-7.84,15.28-8.38,34.03-1.54,49.79
		c6.55,15.49,20.04,27.87,36.07,33c14.86,4.9,31.65,3.52,45.51-3.75c11.99-6.2,21.7-16.63,27.04-29.02
		c6.33-14.48,6.45-31.54,0.35-46.12c-5.7-13.87-16.89-25.36-30.61-31.41C377.65,499.11,365.76,497.75,354.42,499.56 M568.31,500.24
		c-4.07,0.63-8.06,1.69-11.89,3.19c-7.5,3.01-15.41,5.88-21.17,11.82c-5.45,5.08-8.15,12.15-11.4,18.68
		c-7.22,15.38-7.21,33.93-0.0699,49.34c5.5699,12.25,15.48,22.46,27.55,28.4c13.17,6.56,28.81,7.95,42.91,3.72
		c14.28-4.16,26.8-13.97,34.29-26.82c8.66-14.59,10.5-32.98,4.96-49c-4.28-12.63-12.98-23.69-24.25-30.82
		C597.25,501.01,582.38,498.01,568.31,500.24 M191.39,627.47c-21.73,2.88-41.78,16.04-53.05,34.84
		c-10.61,17.36-13.36,39.26-7.4,58.7c4.81,16.1,15.41,30.4,29.42,39.68c12.73,8.64,28.25,13.03,43.62,12.43
		c28.32-0.48,55.24-19.11,65.77-45.38c7.49-18.01,7.28-39.06-0.59-56.89c-7.03-16.16-20.13-29.5699-36.09-37.02
		C220.19,627.65,205.51,625.62,191.39,627.47 M431.48,627.66c-12.04,1.25-23.94,3.78-35.47,7.4301
		c-26.58,8.55-51.67,23.73-68.95,45.97c-12.03,15.38-19.73,34.37-20.44,53.98c-0.98,20.51,5.78,40.9901,17.68,57.6
		c16.91,23.74,42.65,40.03,70.03,49.14c36.9,12.0699,77.66,12.14,114.59,0.14c26.47-8.74,51.41-24.11,68.43-46.5
		c12.1-15.83,19.65-35.41,19.77-55.43c0.36-16.83-4.48-33.6-13.06-48.02c-9.84-16.64-24.29-30.25-40.63-40.42
		C510.34,630.93,470,623.59,431.48,627.66 M720.47,632.59c-21.97,2.2-42.66,14.62-54.64,33.2c-9.17,13.98-13.24,31.19-11.37,47.8
		c1.7599,16.2,9.19,31.71,20.72,43.23c12.37,12.7,29.53,20.57,47.22,21.72c18.03,1.36,36.5099-4.15,50.72-15.36
		c8.74-6.66,15.76-15.47,20.72-25.25c10.02-19.99,10.1-44.68,0.02-64.67c-5.27-10.75-13.32-20.09-23.02-27.09
		C756.42,635.77,738.15,630.88,720.47,632.59z"/>
	<path fill="#DEDEDD" stroke="#DEDEDD" stroke-width="0.394" d="M684.43,218.96c1.43-2.56,2.89-5.1,4.41-7.6
		c64.54,35.82,120.12,87.59,160.46,149.39c39.97,60.91,64.89,131.6,71.89,204.12c0.71,9.24,1.94,18.51,1.62,27.79
		c-1.41,7.03-0.61,14.23-0.83,21.35c-0.15,4.46,0,8.94,0.82,13.34c0.31,9.54-0.96,19.09-1.72,28.61
		c-4.93,49.48-18.09,98.14-38.79,143.35c-16.45,35.66-37.21,69.52-62.48,99.59c-13.15,3.94-26.1,8.85-37.85,16.05
		c-19.4,11.59-36.01,27.85-47.89,47.08c-0.67,0.81-1.36,2.86-2.74,1.8199c-3.91-1.91-7.79-3.83-11.76-5.59
		c2.18-3.05,5.11-5.39,8.09-7.59c87.35-68.84,146.85-171.75,163.29-281.72c9.33-61.19,6.15-124.31-9.74-184.16
		c-18.73-70.91-55.32-137.01-105.43-190.57c-12.92-13.11-25.79-26.31-40.14-37.88c-12.49-10.69-25.82-20.34-39.44-29.52
		C692.2,224.3,688.16,221.87,684.43,218.96z"/>
	<path fill="#4D4948" stroke="#4D4948" stroke-width="0.394" d="M284.81,287.83c54.84-12.73,110.94-20.13,167.23-21.73
		c2.69-0.3,4.7,1.67,6.7,3.14c11.55,8.85,24.69,15.37,38.25,20.52c-62.83-2.09-125.86,4.06-187.38,16.85
		c-2.91,0.83-5.45-1.14-7.92-2.33c-9.42-5.09-19.44-8.9-29.17-13.31C276.51,289.52,280.7,288.82,284.81,287.83z"/>
	<path fill="#4D4948" stroke="#4D4948" stroke-width="0.394" d="M613.65,279.67c2.39-1.48,5.21-0.52,7.77-0.12
		c9.56,1.97,19.15,3.76,28.69,5.87c-3.33,1.25-6.87,1.62-10.31,2.38c-10.65,2.4-21.11,5.63-31.21,9.78
		c-2.9901,1.16-6.07,2.85-9.39,2.16c-9.42-1.61-18.89-2.89-28.36-4.16c3.22-1.27,6.61-1.97,9.97-2.75
		C592.29,289.95,603.3,285.37,613.65,279.67z"/>
	<path fill="#030101" stroke="#030101" stroke-width="0.394" d="M204.78,279.88c6.79-0.61,13.63-0.55,20.42,0.04
		c-1.77,1.39-4.11,0.96-6.19,1.06c-4.29-0.14-8.59,0.2-12.86-0.18C205.81,280.57,205.12,280.11,204.78,279.88z"/>
	<path fill="#040201" stroke="#040201" stroke-width="0.394" d="M204.71,288.39c7.13-0.61,14.34-0.53,21.47,0
		c-0.62,0.31-1.87,0.92-2.49,1.23c-5.47-0.43-10.96-0.47-16.43-0.05C206.62,289.27,205.35,288.68,204.71,288.39z"/>
	<path fill="#FCEDEC" stroke="#FCEDEC" stroke-width="0.394" d="M207.26,289.57c5.47-0.42,10.96-0.38,16.43,0.05
		c32.26,3.08,62.32,16.79,90.25,32.5c20.29,11.56,39.65,24.67,58.41,38.55c1.62,1.13,2.26,3.08,3.15,4.76
		c4.56,9.51,9.35,18.9,13.86,28.44c-42.67,4.28-84.88,14.28-124.4,31.03c-53.57,22.45-101.62,57.18-141.29,99.46
		c-4.88-8.66-8.82-17.84-13.37-26.68c-1.09-2.45-2.88-4.82-2.62-7.63c0.59-28.35,2.65-56.75,7.71-84.68
		c3.84-20.74,9.32-41.35,18.46-60.44c8.58-17.87,21.04-34.63,38.43-44.73C182.89,293.93,195.02,290.56,207.26,289.57 M217.29,307.25
		c-14.27,1.22-28.37,5.69-40.31,13.69c-18.94,12.43-31.76,32.16-40.29,52.77c-11.65,28.35-16.64,58.91-19.6,89.26
		c-0.68,4.18,1.96,7.75,3.59,11.36c1.58,2.98,2.67,6.4,5.27,8.69c3.76,3.3,9.98,2.94,13.45-0.62c21.94-20.86,46.1-39.46,72.28-54.7
		c41.15-24.17,87.14-39.73,134.26-46.87c4.63-0.36,8.74-4.18,9.15-8.85c0.53-3.92-1.91-7.26-3.44-10.64
		c-1.92-3.57-3.14-7.93-6.88-10.07c-14.31-9.06-29.03-17.54-44.38-24.76C274.52,314.44,246.2,305.08,217.29,307.25z"/>
	<path fill="#171413" stroke="#171413" stroke-width="0.394" d="M529.83,293.12c8.93,0.94,17.94,1.03,26.89,0.19
		c0.63,0.39,1.91,1.18,2.55,1.57c-5.73,0.77-11.52,0.36-17.27,0.46c-3.91-0.04-7.87,0.28-11.74-0.43
		C530.15,294.46,529.94,293.57,529.83,293.12z"/>
	<path fill="#191615" stroke="#191615" stroke-width="0.394" d="M659.2,293.17c6.76-0.76,13.7-0.68,20.47-0.03
		c0.13,0.42,0.39,1.26,0.52,1.69c-7.04-0.81-14.15-0.76-21.19-0.05C659.05,294.38,659.15,293.57,659.2,293.17z"/>
	<path fill="#FCEDEC" stroke="#FCEDEC" stroke-width="0.394" d="M659,294.78c7.04-0.71,14.15-0.76,21.19,0.05
		c15.2,1.52,29.99,7.4,41.84,17.11c13.16,10.63,22.71,25.09,29.7599,40.33c9.02,19.67,14.34,40.82,18.03,62.09
		c4.57,26.64,6.35,53.68,7.05,80.68c0.24,2.17-0.98,4.07-1.86,5.96c-4.75,9.41-9.23,18.95-14,28.36
		c-25.58-26.91-54.19-51.06-85.78-70.65c-54.17-33.98-116.66-53.82-180.19-59.86c5.06-10.25,10.05-20.53,15.11-30.77
		c0.77-1.8,2.47-2.85,3.98-3.96c32.42-23.57,66.51-45.7,104.29-59.66C631.53,299.77,645.11,296.11,659,294.78 M645.45,312.6
		c-20.33,2.28-39.88,9.04-58.41,17.5c-16.5,7.55-32.31,16.56-47.6,26.31c-3.25,1.97-4.48,5.72-6.12,8.92
		c-1.34,2.94-3.15,5.73-3.88,8.92c-0.98,5.31,3.19,10.86,8.57,11.42c44.33,6.69,87.65,20.75,126.92,42.47
		c29.11,16.04,55.92,36.13,79.98,59.03c3.22,3.38,8.81,4.14,12.71,1.48c3.15-2.06,4.34-5.83,6.02-9c1.64-3.7,4.37-7.33,3.75-11.59
		c-2.16-23.34-5.76-46.64-12.41-69.16c-5.55-18.44-13.26-36.51-25.04-51.88c-9.45-12.38-21.9-22.63-36.36-28.55
		C678.43,312.19,661.63,310.73,645.45,312.6z"/>
	<path fill="#1F1A17" stroke="#1F1A17" stroke-width="0.394" d="M217.29,307.25c28.91-2.17,57.23,7.19,83.1,19.26
		c15.35,7.22,30.07,15.7,44.38,24.76c3.74,2.14,4.96,6.5,6.88,10.07c1.53,3.38,3.97,6.72,3.44,10.64c-0.41,4.67-4.52,8.49-9.15,8.85
		c-47.12,7.14-93.11,22.7-134.26,46.87c-26.18,15.24-50.34,33.84-72.28,54.7c-3.47,3.56-9.69,3.92-13.45,0.62
		c-2.6-2.29-3.69-5.71-5.27-8.69c-1.63-3.61-4.27-7.18-3.59-11.36c2.96-30.35,7.95-60.91,19.6-89.26
		c8.53-20.61,21.35-40.34,40.29-52.77C188.92,312.94,203.02,308.47,217.29,307.25 M189.28,325.26c-18.87,9.61-32.12,27.4-40.78,46.3
		c-12.77,27.95-17.96,58.63-21.16,88.99c-1.21,5.48,3.07,9.88,4.94,14.68c19.73-18.22,40.64-35.3,63.49-49.5
		c45.14-28.63,96.51-46.91,149.29-54.86c-2.5-4.59-3.59-10.71-8.73-13.15c-26.23-16.2-53.99-30.95-84.26-37.82
		C231.34,315.24,208.5,315.21,189.28,325.26z"/>
	<path fill="#1F1A17" stroke="#1F1A17" stroke-width="0.394" d="M645.45,312.6c16.18-1.87,32.98-0.41,48.13,5.87
		c14.46,5.92,26.91,16.17,36.36,28.55c11.78,15.37,19.49,33.44,25.04,51.88c6.65,22.52,10.25,45.82,12.41,69.16
		c0.62,4.26-2.11,7.89-3.75,11.59c-1.68,3.17-2.87,6.94-6.02,9c-3.9,2.66-9.49,1.9-12.71-1.48c-24.06-22.9-50.87-42.99-79.98-59.03
		c-39.27-21.72-82.59-35.78-126.92-42.47c-5.38-0.56-9.55-6.11-8.57-11.42c0.73-3.19,2.54-5.98,3.88-8.92
		c1.64-3.2,2.87-6.95,6.12-8.92c15.29-9.75,31.1-18.76,47.6-26.31C605.57,321.64,625.12,314.88,645.45,312.6 M593.95,337.9
		c-16.83,7.56-33.01,16.55-48.49,26.58c-2.8,3.23-4.19,7.49-5.88,11.38c45.68,6.86,90.29,21.46,130.72,43.91
		c29.78,16.41,57.14,37.05,81.78,60.46c1.87-3.66,4.12-7.23,5.23-11.22c-0.92-14.31-3.18-28.52-5.83-42.61
		c-4.39-21.53-10.67-43.01-21.84-62.07c-8.43-14.36-20.23-27.2-35.34-34.59c-13.64-6.91-29.3-8.75-44.4-7.59
		C630.46,323.81,611.72,330.08,593.95,337.9z"/>
	<path fill="#EF9BA0" stroke="#EF9BA0" stroke-width="0.394" d="M189.28,325.26c19.22-10.05,42.06-10.02,62.79-5.36
		c30.27,6.87,58.03,21.62,84.26,37.82c5.14,2.44,6.23,8.56,8.73,13.15c-52.78,7.95-104.15,26.23-149.29,54.86
		c-22.85,14.2-43.76,31.28-63.49,49.5c-1.87-4.8-6.15-9.2-4.94-14.68c3.2-30.36,8.39-61.04,21.16-88.99
		C157.16,352.66,170.41,334.87,189.28,325.26z"/>
	<path fill="#EF9BA0" stroke="#EF9BA0" stroke-width="0.394" d="M593.95,337.9c17.77-7.82,36.51-14.09,55.95-15.75
		c15.1-1.16,30.7599,0.68,44.4,7.59c15.11,7.39,26.91,20.23,35.34,34.59c11.17,19.06,17.45,40.54,21.84,62.07
		c2.65,14.09,4.91,28.3,5.83,42.61c-1.11,3.99-3.36,7.56-5.23,11.22c-24.64-23.41-52-44.05-81.78-60.46
		c-40.43-22.45-85.04-37.05-130.72-43.91c1.69-3.89,3.08-8.15,5.88-11.38C560.94,354.45,577.12,345.46,593.95,337.9z"/>
	<path fill="#1F1A17" stroke="#1F1A17" stroke-width="0.394" d="M354.42,499.56c11.34-1.81,23.23-0.45,33.73,4.29
		c13.72,6.05,24.91,17.54,30.61,31.41c6.1,14.58,5.98,31.64-0.35,46.12c-5.34,12.39-15.05,22.82-27.04,29.02
		c-13.86,7.27-30.65,8.65-45.51,3.75c-16.03-5.13-29.52-17.51-36.07-33c-6.84-15.76-6.3-34.51,1.54-49.79
		c2.09-3.95,3.67-8.18,6.27-11.83c3.87-5.48,9.26-9.85,15.35-12.64C339.89,503.88,346.87,500.69,354.42,499.56 M346.38,504.41
		c-12.93,1.29-25.43,9.18-30.89,21.17c-4.57,9.31-3.99,20.8,1.14,29.77c5.06,9.06,14.25,15.5,24.3,17.85
		c14.61,3.57,31.25-1.65,40.42-13.77c7.41-9.38,9.02-22.91,3.96-33.74C378.74,511.11,362.03,502.69,346.38,504.41z"/>
	<path fill="#1F1A17" stroke="#1F1A17" stroke-width="0.394" d="M568.31,500.24c14.07-2.23,28.94,0.77,40.93,8.51
		c11.27,7.13,19.97,18.19,24.25,30.82c5.54,16.02,3.7,34.41-4.96,49c-7.4901,12.85-20.01,22.66-34.29,26.82
		c-14.1,4.23-29.74,2.84-42.91-3.72c-12.07-5.94-21.98-16.15-27.55-28.4c-7.14-15.41-7.15-33.96,0.0699-49.34
		c3.25-6.53,5.95-13.6,11.4-18.68c5.76-5.94,13.67-8.81,21.17-11.82C560.25,501.93,564.24,500.87,568.31,500.24 M556.41,505.64
		c-11.79,2.23-22.77,9.92-27.69,21.05c-4.68,9.9-3.62,22.14,2.4,31.25c6.45,10.01,17.98,16.26,29.78,17.02
		c14.0699,1.08,28.74-5.76,36.03-18.01c6-9.74,6.31-22.63,0.72-32.62C589.92,509.96,572.22,502.55,556.41,505.64z"/>
	<path fill="#FFFFFF" stroke="#FFFFFF" stroke-width="0.394" d="M346.38,504.41c15.65-1.72,32.36,6.7,38.93,21.28
		c5.06,10.83,3.45,24.36-3.96,33.74c-9.17,12.12-25.81,17.34-40.42,13.77c-10.05-2.35-19.24-8.79-24.3-17.85
		c-5.13-8.97-5.71-20.46-1.14-29.77C320.95,513.59,333.45,505.7,346.38,504.41z"/>
	<path fill="#FFFFFF" stroke="#FFFFFF" stroke-width="0.394" d="M556.41,505.64c15.81-3.09,33.51,4.32,41.2401,18.69
		c5.59,9.99,5.28,22.88-0.72,32.62c-7.29,12.25-21.96,19.09-36.03,18.01c-11.8-0.76-23.33-7.01-29.78-17.02
		c-6.02-9.11-7.08-21.35-2.4-31.25C533.64,515.56,544.62,507.87,556.41,505.64z"/>
	<path fill="#F4F4F4" stroke="#F4F4F4" stroke-width="0.394" d="M921.98,614.01c0.22-7.12-0.58-14.32,0.83-21.35
		c0.78,11.53,0.77,23.15-0.01,34.69C921.98,622.95,921.83,618.47,921.98,614.01z"/>
	<path fill="#EF9BA0" stroke="#EF9BA0" stroke-width="0.394" d="M191.39,627.47c14.12-1.85,28.8,0.1801,41.68,6.36
		c15.96,7.45,29.06,20.86,36.09,37.02c7.87,17.83,8.08,38.88,0.59,56.89c-10.53,26.27-37.45,44.9-65.77,45.38
		c-15.37,0.6-30.89-3.79-43.62-12.43c-14.01-9.28-24.61-23.58-29.42-39.68c-5.96-19.44-3.21-41.34,7.4-58.7
		C149.61,643.51,169.66,630.35,191.39,627.47z"/>
	<path fill="#1F1A17" stroke="#1F1A17" stroke-width="0.394" d="M431.48,627.66c38.52-4.0699,78.86,3.27,111.95,23.89
		c16.34,10.17,30.79,23.78,40.63,40.42c8.58,14.42,13.42,31.19,13.06,48.02c-0.12,20.02-7.67,39.6-19.77,55.43
		c-17.02,22.39-41.96,37.76-68.43,46.5c-36.93,12-77.69,11.93-114.59-0.14c-27.38-9.11-53.12-25.4-70.03-49.14
		c-11.9-16.61-18.66-37.09-17.68-57.6c0.71-19.61,8.41-38.6,20.44-53.98c17.28-22.24,42.37-37.42,68.95-45.97
		C407.54,631.44,419.44,628.91,431.48,627.66 M436.49,639.66c-35.57,3.11-71.54,17.16-95.65,44.2401
		c-12.27,13.81-20.63,31.45-21.73,50.03c-0.97,15.15,2.82,30.48,10.34,43.64c9.65,17.07,24.74,30.58,41.61,40.3
		c32.03,18.34,70.44,23.86,106.72,18.65c30.42-4.55,60.44-17.33,82.03-39.69c11.61-12.07,20.41-27.18,23.52-43.75
		c3.47-17.14,0.43-35.32-7.73-50.72c-8.38-16.12-21.72-29.22-36.84-39.07C508.71,643.94,471.85,636.63,436.49,639.66z"/>
	<path fill="#EF9BA0" stroke="#EF9BA0" stroke-width="0.394" d="M720.47,632.59c17.6801-1.71,35.95,3.18,50.3701,13.58
		c9.7,7,17.75,16.34,23.02,27.09c10.08,19.99,10,44.68-0.02,64.67c-4.96,9.78-11.98,18.59-20.72,25.25
		c-14.21,11.21-32.69,16.72-50.72,15.36c-17.69-1.15-34.85-9.02-47.22-21.72c-11.53-11.52-18.96-27.03-20.72-43.23
		c-1.87-16.61,2.2-33.82,11.37-47.8C677.81,647.21,698.5,634.79,720.47,632.59z"/>
	<path fill="#EF9BA0" stroke="#EF9BA0" stroke-width="0.394" d="M436.49,639.66c35.36-3.03,72.22,4.28,102.27,23.63
		c15.12,9.85,28.46,22.95,36.84,39.07c8.16,15.4,11.2,33.58,7.73,50.72c-3.11,16.57-11.91,31.68-23.52,43.75
		c-21.59,22.36-51.61,35.14-82.03,39.69c-36.28,5.21-74.69-0.31-106.72-18.65c-16.87-9.72-31.96-23.23-41.61-40.3
		c-7.52-13.16-11.31-28.49-10.34-43.64c1.1-18.58,9.46-36.22,21.73-50.03C364.95,656.82,400.92,642.77,436.49,639.66 M398.4,696.61
		c-7.92,2.6-12.43,10.47-14.84,17.97c-5.47,17.18-5.78,35.57-4.16,53.38c1.51,10.91,3.33,22.5099,10.19,31.5099
		c3.99,5.15,10.87,8.2,17.35,6.64c6.65-1.44,11.51-7.05,14.18-13.04c4.35-9.74,5.98-20.44,6.77-31c0.81-12.97,0.33-26.09-2.28-38.84
		c-1.7-7.38-3.92-15.01-8.89-20.9C412.42,697.05,404.97,694.44,398.4,696.61 M496.29,696.34c-10.16,2.72-14.8,13.48-17.19,22.78
		c-3.87,14.94-4.21,30.6-3.05,45.93c0.67,8.13,2.14,16.24,4.84,23.95c1.9,5.26,4.66,10.45,9.16,13.94
		c4.52,3.57,10.96,4.61,16.32,2.39c5.45-2.19,9.33-7.07,11.68-12.31c4.39-9.7,5.95-20.39,6.77-30.92
		c0.7-12.03,0.42-24.18-1.78-36.05c-1.54-7.9-3.64-16.03-8.48-22.61C510.48,697.83,503.16,694.49,496.29,696.34z"/>
	<path fill="#DEDEDD" stroke="#DEDEDD" stroke-width="0.394" d="M22.41,693.84c2.37,8.96,4.12,18.0699,6.81,26.95
		c19.14,69.37,55.48,133.82,104.72,186.27c44.9,47.79,100.42,85.75,161.62,109.41c53.73,21.12,111.75,31.1,169.44,29.63
		c14.39,0.22,28.66-2.12,43.01-2.51c-2.25,6.8101-4.07,13.75-5.57,20.76c-5.01,0.0701-10.02,1.03-15.02,0.4601
		c-6.4-1.42-12.95-0.5601-19.42-0.6801c-6.47,0.12-13.03-0.75-19.41,0.6801c-10.17,0.3799-20.34-1.0801-30.46-1.9601
		c-52.9-5.73-104.77-20.88-152.42-44.58c-58.87-29.2-111.24-71.35-152.46-122.53c-46.01-57.05-78.27-125.35-92.07-197.37
		C21.55,696.84,21.98,695.34,22.41,693.84z"/>
	<path fill="#1F1A17" stroke="#1F1A17" stroke-width="0.394" d="M398.4,696.61c6.57-2.17,14.02,0.44,18.32,5.72
		c4.97,5.89,7.19,13.52,8.89,20.9c2.61,12.75,3.09,25.87,2.28,38.84c-0.79,10.56-2.42,21.26-6.77,31
		c-2.67,5.99-7.53,11.6-14.18,13.04c-6.48,1.56-13.36-1.49-17.35-6.64c-6.86-9-8.68-20.6-10.19-31.5099
		c-1.62-17.81-1.31-36.2,4.16-53.38C385.97,707.08,390.48,699.21,398.4,696.61 M402.37,708.45c-2.37,0.7-3.79,2.91-4.92,4.96
		c-2.61,5.04-3.84,10.65-4.83,16.2c-2.36,15.28-2.3,30.98,0.58,46.18c1.3,5.7401,2.66,11.83,6.54,16.45
		c1.58,2.13,5.18,2.44,6.94,0.38c3.69-4,5.09-9.46,6.4-14.59c3.51-16.0601,3.6-32.8101,0.96-49.01c-1.12-5.97-2.37-12.15-5.78-17.29
		C406.93,709.91,404.89,707.58,402.37,708.45z"/>
	<path fill="#1F1A17" stroke="#1F1A17" stroke-width="0.394" d="M496.29,696.34c6.87-1.85,14.19,1.49,18.27,7.1
		c4.84,6.58,6.94,14.71,8.48,22.61c2.2,11.87,2.48,24.02,1.78,36.05c-0.82,10.53-2.38,21.22-6.77,30.92
		c-2.35,5.24-6.23,10.12-11.68,12.31c-5.36,2.22-11.8,1.18-16.32-2.39c-4.5-3.49-7.26-8.68-9.16-13.94
		c-2.7-7.71-4.17-15.82-4.84-23.95c-1.16-15.33-0.82-30.99,3.05-45.93C481.49,709.82,486.13,699.06,496.29,696.34 M499.39,708.44
		c-3.13,0.99-4.67,4.21-5.97,6.97c-3.36,8.07-4.45,16.8701-5.2,25.53c-0.79,12.51-0.29,25.18,2.46,37.45
		c1.33,5.07,2.74,10.53,6.53,14.39c1.65,1.81,4.77,1.52,6.39-0.2c3.54-3.74,4.9-8.92,6.22-13.76c3.53-15.45,3.66-31.55,1.57-47.21
		c-1.19-6.81-2.4-13.91-6.18-19.83C503.87,710,501.92,707.56,499.39,708.44z"/>
	<path fill="#4D4948" stroke="#4D4948" stroke-width="0.394" d="M402.37,708.45c2.52-0.87,4.56,1.46,5.89,3.28
		c3.41,5.14,4.66,11.32,5.78,17.29c2.64,16.2,2.55,32.95-0.96,49.01c-1.31,5.1299-2.71,10.59-6.4,14.59
		c-1.76,2.06-5.36,1.75-6.94-0.38c-3.88-4.62-5.24-10.71-6.54-16.45c-2.88-15.2-2.94-30.9-0.58-46.18
		c0.99-5.55,2.22-11.16,4.83-16.2C398.58,711.36,400,709.15,402.37,708.45z"/>
	<path fill="#4D4948" stroke="#4D4948" stroke-width="0.394" d="M499.39,708.44c2.53-0.88,4.48,1.56,5.82,3.34
		c3.78,5.92,4.99,13.02,6.18,19.83c2.09,15.66,1.96,31.76-1.57,47.21c-1.32,4.84-2.68,10.02-6.22,13.76
		c-1.62,1.72-4.74,2.01-6.39,0.2c-3.79-3.86-5.2-9.32-6.53-14.39c-2.75-12.27-3.25-24.94-2.46-37.45c0.75-8.66,1.84-17.46,5.2-25.53
		C494.72,712.65,496.26,709.43,499.39,708.44z"/>
	<path fill="#FFFFFF" stroke="#FFFFFF" stroke-width="0.394" d="M807.1,907.03c35.69-13.44,76.88-11.3101,110.91,5.95
		c30.76,15.18,55.45,42.14,67.8,74.16c13.79,34.93,12.73,75.45-3.22,109.49c-5.3701,11.4-12,22.3199-20.38,31.77
		c-0.77-14.91-4.03-29.64-9.32-43.5801c-0.84-1.47,0.08-2.9299,0.64-4.2599c10.49-23.63,11.61-51.14,3.55-75.66
		c-9.06-28.29-30.59-52.21-57.76-64.22c-22.88-10.4-49.5-12.15-73.59-5.03c-17.71,5.15-34.03,14.98-46.81,28.28
		c-6.51,6.58-11.76,14.25-16.56,22.12c-7.93-7.79-17.15-14.1-26.61-19.86C752.01,939.2,777.46,917.84,807.1,907.03z"/>
	<path fill="#DEDEDD" stroke="#DEDEDD" stroke-width="0.394" d="M891.93,899.23c15.91,1.12,31.43,6.2,45.78,13.03
		c30.91,14.91,55.89,41.65,68.5,73.59c14.2,34.92,13.38,75.62-2.41,109.87c-9.41,20.5601-23.66,39.0701-41.75,52.7001
		c0.26-4.66,0.23-9.3301,0.48-13.9801c2.16-3.6599,5.43-6.5599,7.8199-10.08c22.7401-30.02,32.85-69.17,27.38-106.44
		c-4.47-31.89-20.02-62.11-43.5-84.16C936.79,917.28,915.16,905.26,891.93,899.23z"/>
	<path fill="#AAA9A9" stroke="#AAA9A9" stroke-width="0.394" d="M845.09,935.66c36.42-4.33,74.2,13.21,94.96,43.33
		c20.06,28.41,24.64,67.49,10.24,99.3201c-13.69-31-38.62-56.67-69.13-71.3901c3.73-6.54,7.41-13.11,11.22-19.59
		c1.15-0.92,2.06,0.84,2.84,1.48c3.46,3.86,5.91,8.86,5.83,14.14c0.24,4.4-1.38,8.56-2.24,12.82c5.42,2.03,10.8,4.19,16.21,6.27
		c3.9-9.34,4.62-20.24,0.63-29.67c-3.01-7.68-9.17-13.52-15.65-18.34c1.33-2.32,2.64-4.65,3.96-6.97c-2.82-1.78-5.72-3.43-8.71-4.9
		c-1.43,2.19-2.23,5.05-4.3,6.6801c-8.85-3.53-18.61-6.6-28.15-4.01c-12.86,2.94-22.98,13.48-27.17,25.75
		c-0.53,1.13-0.78,3.32-2.58,2.82c-11.67-1.09-23.37,0.02-35.05-0.41c-8.71-0.24-17.34,1.06-25.93,2.22
		c-2.73-1.57-4.52-4.34-6.76-6.4901C781.03,959.33,811.9,938.78,845.09,935.66z"/>
	<path fill="#FFFFFF" stroke="#FFFFFF" stroke-width="0.394" d="M585.72,963.72c27.47-12.54,59.0601-15.8799,88.52-9.16
		c29.53,6.69,56.9,23.13,76.22,46.49c-10.68,3.98-21.1,8.8-30.58,15.17c-13.31-13.24-29.89-23.27-48.05-28.18
		c-26.38-7.4-55.52-3.89-79.51,9.28c-33.4,17.89-55.56,54.77-55.44,92.69c-0.59,33.9,16.3,67.49,43.83,87.26
		c24.46,17.98,56.78,24.74,86.36,17.7999c4.81,10.38,10.58,20.3401,17.64,29.3601c-35.8,11.5499-76.2401,7.1699-108.9901-11.2401
		c-29.4399-16.1799-52.56-43.4099-63.74-75.09c-13.23-36.5599-10.29-78.6,8.22-112.8199C534.47,998.29,557.85,976.24,585.72,963.72z
		"/>
	<path fill="#DEDEDD" stroke="#DEDEDD" stroke-width="0.394" d="M679.92,952.2c7.79,0.07,15.37,2.25,22.86,4.18
		c19.28,5.53,37.34,15.27,52.59,28.3c4.11,3.71,8.47,7.27,11.8,11.74c-4.33,0.91-8.58,2.09-12.81,3.34
		C735.34,976.64,708.94,959.64,679.92,952.2z"/>
	<path fill="#AAA9A9" stroke="#AAA9A9" stroke-width="0.394" d="M866.58,980.54c5.68-2.14,11.91-1.2,17.52,0.66
		c-3.71,7.41-8.12,14.45-12.21,21.67c-6.56-2.44-13.21-4.7-20.05-6.21C853.68,989.28,859.28,982.88,866.58,980.54z"/>
	<path fill="#AAA9A9" stroke="#AAA9A9" stroke-width="0.394" d="M586.96,1004.91c21.21-14.03,47.74-19.79,72.84-15.68
		c21.29,3.38,41.37,13.7,56.62,28.92c-6.7,5.37-13.61,10.51-19.64,16.66c-2.82-2.75-5.82-5.3-8.88-7.76
		c1.3-2.3201,2.6-4.6301,3.9-6.9301c-2.81-1.77-5.69-3.41-8.62-4.95c-1.33,2.34-2.7,4.65-4.13,6.93
		c-8.57-3.67-18.09-6.59-27.45-4.44c-17.71,3.66-30.8199,21.5001-30.2,39.35c0.38,10.03,6.54,18.52,12.69,25.95
		c1.86,2.4401,4.73,4.15,6.11,6.91c-8.64,15.5699-17.69,30.9401-26.51,46.4301c-5.82-3.79-9.1-10.5601-9.92-17.3
		c-0.85-7.1801,1.38-14.21,3.91-20.8199c-5.51-1.9-10.93-4.0701-16.56-5.5701c-5.54,11.2001-7.12,24.72-2.21,36.4401
		c3.55,8.34,10.75,14.21,17.48,19.9399c-2.66,4.96-5.74,9.6801-8.25,14.71c2.84,1.6801,5.65,3.4401,8.72,4.7201
		c2.74-4.88,5.52-9.7301,8.32-14.5601c7.48,3.33,15.61,5.8,23.89,4.87c5.9-0.36,11.29-2.9,16.72-5.01
		c1,9.3301,3.1,18.53,6.01,27.4501c1.14,3.5499,2.72,6.97,3.52,10.64c-19.18,3.8799-39.43,2.6799-57.76-4.3
		c-16.54-6.2-31.5-16.66-42.84-30.21c-12.53-14.8301-20.5699-33.3-23.25-52.5c-2.45-18.74,0.14-38.1801,7.88-55.4601
		C557.3,1031.34,570.46,1015.65,586.96,1004.91z"/>
	<path fill="#FFFFFF" stroke="#FFFFFF" stroke-width="0.394" d="M704.56,1032.61c26.3-23.82,61.94-36.98,97.41-35.84
		c35.9301,0.73,71.16,16.36,96.1801,42.08c22.48,22.85,36.38,53.6901,39.2599,85.5601c0.77,8.6599,0.64,17.36-0.12,26.02
		c-3.35,32.1799-18.0099,63.0699-41.15,85.72c-26.24,26.03-63.18,40.8199-100.13,40.13c-36.34-0.3-72.13-15.8401-97.55-41.74
		c-23.33-23.5901-37.62-55.73-39.81-88.8c-0.47-6.96-0.47-13.95,0.19-20.89C661.62,1089.78,678.4,1056.11,704.56,1032.61
		 M784.46,1030.64c-35.68,4.29-68.15,28.03-83.04,60.74c-11.06,23.37-13,50.83-5.55,75.5699c8.33,28.6101,29.31,53.1801,56.27,65.87
		c20.66,9.9801,44.6,12.88,67.07,8.3c19.63-3.9399,38.1-13.51,52.56-27.36c23.46-22.23,36.01-55.53,32.5-87.72
		c-2.04-21.4301-10.81-42.16-24.74-58.5701C856.74,1040.1899,819.7,1025.74,784.46,1030.64z"/>
	<path fill="#DEDEDD" stroke="#DEDEDD" stroke-width="0.394" d="M834.03,997.3c32.04,3.46,62.7,18.4,85.1299,41.55
		c27.2401,27.75,41.86,67.3101,39.3,106.1c-1.86,33.15-16.28,65.3301-39.45,89.0601c-21.72,22.3099-51.16,37.21-82.11,40.85
		c16.92-5.24,33.2599-12.78,47.39-23.59c32.44-24.12,53.56-62.55,56.89-102.8101l0.14-0.9099c0.83-1.7201,1.63-3.51,1.49-5.4601
		c-0.03-5.27-0.15-10.5299,0.07-15.7899c-0.4,0.1599-1.22,0.48-1.63,0.63c-0.04-0.52-0.13-1.55-0.18-2.0701
		c-2.47-32.1-16.27-63.17-38.32-86.6c-13-13.88-28.82-25.07-46.17-32.83C849.36,1001.91,841.57,999.94,834.03,997.3z"/>
	<path fill="#1F1A17" stroke="#1F1A17" stroke-width="0.394" d="M784.46,1030.64c35.24-4.9,72.28,9.5499,95.07,36.83
		c13.93,16.41,22.7,37.14,24.74,58.5701c3.51,32.1899-9.04,65.49-32.5,87.72c-14.46,13.85-32.93,23.42-52.56,27.36
		c-22.47,4.58-46.41,1.6801-67.07-8.3c-26.96-12.6899-47.94-37.2599-56.27-65.87c-7.45-24.74-5.51-52.2,5.55-75.5699
		C716.31,1058.67,748.78,1034.9301,784.46,1030.64 M785.32,1034.28c-21.51,2.6699-42.1,12.3099-57.84,27.22
		c-25.1,23.39-37.19,59.84-30.64,93.5699C702.35,1186.3,723.21,1214.3,751.62,1228.4c21.15,10.87,46.13,13.8099,69.29,8.5399
		c28.55-6.3099,53.92-25.5,67.69-51.2999c11.84-21.51,15.44-47.35,10.05-71.29c-6.03-28.41-24.85-53.73-50.27-67.76
		C829.39,1035.8199,806.94,1031.55,785.32,1034.28z"/>
	<path fill="#AAA9A9" stroke="#AAA9A9" stroke-width="0.394" d="M652.4,1034.4c6.15-3,13.31-2.36,19.59-0.12
		c-7.44,13.7899-15.54,27.22-23.23,40.87c-4.13-4.04-7.65-8.92-9.34-14.49C636.76,1050.35,642.72,1038.66,652.4,1034.4z"/>
	<path fill="#AAA9A9" stroke="#AAA9A9" stroke-width="0.394" d="M785.32,1034.28c21.62-2.73,44.07,1.5399,63.06,12.3099
		c25.42,14.03,44.24,39.35,50.27,67.76c5.39,23.9401,1.79,49.78-10.05,71.29c-13.77,25.7999-39.14,44.99-67.69,51.2999
		c-23.16,5.27-48.14,2.3301-69.29-8.5399c-28.41-14.1-49.27-42.1-54.78-73.3301c-6.55-33.73,5.54-70.1799,30.64-93.5699
		C743.22,1046.59,763.81,1036.95,785.32,1034.28 M833.85,1067.37c-4.89-1.55-9.6-3.73-14.7-4.49c-11.21-2.14-23.2,2.05-31.13,10.15
		c-9.63,9.76-15.11,24.8199-10.24,38.1699c3.62,9.2301,10.23,16.9401,17.29,23.74c-9.04,15.5901-17.71,31.4-27.03,46.8101
		c-6.12-4.62-9.71-12.11-9.9-19.73c-0.25-6.46,2.25-12.51,3.89-18.63c-5.41-1.7001-10.72-3.71-16.08-5.53
		c-5.71,10.66-7.19,23.73-3.02,35.1801c3.35,8.9399,10.77,15.45,18.08,21.2c-2.61,5-5.69,9.74-8.26,14.76
		c2.84,1.45,5.64,4.36,8.77,4.48c3-4.65,5.36-9.7,8.41-14.3199c5.36,2.58,11.07,4.6899,17.08,5.01
		c11.99,0.99,24.26-3.91,32.35-12.78c6.15-6.73,10.6-15.24,11.67-24.36c0.8799-7.1901-0.65-14.55-4.19-20.85
		c-3.78-7.3401-10.15-12.76-15.9-18.4901c7.86-14.36,16.23-28.4399,24.32-42.6799c3.83,3.41,7.03,7.83,7.89,12.99
		c1.02,5.41-0.41,10.87-2.15,15.98c5.54,2.1801,10.96,4.8101,16.76,6.26c3.37-9.4,4.41-20.04,0.34-29.39
		c-2.97-7.8099-9.42-13.36-15.6-18.61c1.07-2.29,3.39-4.41,3.36-6.96c-2.51-1.8301-5.32-3.16-8.01-4.65
		C836.41,1062.8,835.09,1065.0601,833.85,1067.37z"/>
	<path fill="#AAA9A9" stroke="#AAA9A9" stroke-width="0.394" d="M656.38,1082.0699c8.15-14.1499,15.99-28.5,24.5-42.4299
		c2.03,1.98,3.82,4.1899,5.45,6.52c-9.77,12.88-17.98,26.97-23.49,42.2C660.5,1086.45,658.37,1084.3199,656.38,1082.0699z"/>
	<path fill="#1F1A17" stroke="#1F1A17" stroke-width="0.394" d="M833.85,1067.37c1.2401-2.3099,2.56-4.5699,4-6.74
		c2.69,1.49,5.5,2.8199,8.01,4.65c0.03,2.5499-2.29,4.6699-3.36,6.96c6.18,5.25,12.63,10.8,15.6,18.61
		c4.07,9.35,3.03,19.99-0.34,29.39c-5.8-1.45-11.22-4.08-16.76-6.26c1.74-5.11,3.17-10.5699,2.15-15.98
		c-0.86-5.16-4.06-9.58-7.89-12.99c-8.09,14.24-16.46,28.3199-24.32,42.6799c5.75,5.7301,12.12,11.15,15.9,18.4901
		c3.54,6.2999,5.0699,13.6599,4.19,20.85c-1.07,9.12-5.52,17.63-11.67,24.36c-8.09,8.87-20.36,13.77-32.35,12.78
		c-6.01-0.3201-11.72-2.4301-17.08-5.01c-3.05,4.62-5.41,9.6699-8.41,14.3199c-3.13-0.12-5.93-3.03-8.77-4.48
		c2.57-5.02,5.65-9.76,8.26-14.76c-7.31-5.75-14.73-12.26-18.08-21.2c-4.17-11.4501-2.69-24.52,3.02-35.1801
		c5.36,1.8201,10.67,3.83,16.08,5.53c-1.64,6.12-4.14,12.17-3.89,18.63c0.19,7.62,3.78,15.11,9.9,19.73
		c9.32-15.41,17.9901-31.22,27.03-46.8101c-7.06-6.7999-13.67-14.5099-17.29-23.74c-4.8701-13.35,0.61-28.4099,10.24-38.1699
		c7.93-8.1,19.92-12.29,31.13-10.15C824.25,1063.64,828.96,1065.8199,833.85,1067.37 M801.91,1082.9301
		c-6.23,5.3999-10.02,14.2-8.1,22.4199c1.51,5.85,5.26,10.8101,9.32,15.17c8.13-13.36,15.73-27.05,23.43-40.66
		C818.57,1076.45,808.66,1077.22,801.91,1082.9301 M802.45,1142.03c-8.31,15.0599-17.21,29.7899-25.49,44.87
		c9.92,4.2999,22.2599,1.5399,29.31-6.6801c5.3-6.2,9.29-14.88,6.56-23.0699C810.6,1151.42,806.91,1146.24,802.45,1142.03z"/>
	<path fill="#F7F7F7" stroke="#F7F7F7" stroke-width="0.394" d="M448.59,1064.8101c6.38-1.4301,12.94-0.5601,19.41-0.6801
		c6.47,0.12,13.02-0.74,19.42,0.6801C474.52,1065.79,461.48,1065.8,448.59,1064.8101z"/>
	<path fill="#AAA9A9" stroke="#AAA9A9" stroke-width="0.394" d="M801.91,1082.9301c6.75-5.7101,16.66-6.4801,24.65-3.0701
		c-7.7,13.61-15.3,27.3-23.43,40.66c-4.06-4.36-7.81-9.3201-9.32-15.17C791.89,1097.13,795.68,1088.33,801.91,1082.9301z"/>
	<path fill="#AAA9A9" stroke="#AAA9A9" stroke-width="0.394" d="M622.39,1141.25c8.57-14.85,16.99-29.8,25.65-44.61
		c3.22,3.28,6.08,6.96,8.33,10.98c1.29,2.28,0.07,4.9401-0.11,7.36c-1.04,5.1901-0.96,10.51-1.67,15.73
		C648.66,1141.7,633.68,1146.8199,622.39,1141.25z"/>
	<path fill="#060101" stroke="#060101" stroke-width="0.394" d="M937.41,1124.41c0.31-0.42,0.92-1.27,1.23-1.6901
		c0.37,5.41,0.05,10.8401,0.13,16.27c0,4.0701,0.41,8.1901-0.47,12.21l-1.01-0.7699C938.05,1141.77,938.18,1133.0699,937.41,1124.41
		z"/>
	<path fill="#12100F" stroke="#12100F" stroke-width="0.394" d="M657.09,1125.25c0.44-0.1,1.31-0.3,1.75-0.4
		c-0.66,6.9401-0.66,13.9301-0.19,20.89c-0.37,0.64-1.13,1.9301-1.5,2.5701C656.38,1140.66,656.43,1132.89,657.09,1125.25z"/>
	<path fill="#060201" stroke="#060201" stroke-width="0.394" d="M940.18,1135.01c0.32-3.36-0.91-7.13,0.89-10.15
		c0.05,0.52,0.14,1.55,0.18,2.0701c0.54,6.86,0.33,13.75,0.07,20.62l-0.14,0.9099C939.18,1144.28,940.54,1139.46,940.18,1135.01z"/>
	<path fill="#FFFFFF" stroke="#FFFFFF" stroke-width="0.394" d="M941.25,1126.9301c0.41-0.15,1.23-0.4701,1.63-0.63
		c-0.22,5.26-0.1,10.5199-0.07,15.7899c0.14,1.9501-0.66,3.74-1.49,5.4601C941.58,1140.6801,941.79,1133.79,941.25,1126.9301z"/>
	<path fill="#AAA9A9" stroke="#AAA9A9" stroke-width="0.394" d="M802.45,1142.03c4.46,4.21,8.15,9.39,10.38,15.12
		c2.73,8.1899-1.26,16.87-6.56,23.0699c-7.05,8.22-19.39,10.98-29.31,6.6801C785.24,1171.8199,794.14,1157.09,802.45,1142.03z"/>
	<path fill="#DEDEDD" stroke="#DEDEDD" stroke-width="0.394" d="M681.07,1229.66c2.28-0.9601,4.65-1.76,7.15-1.79
		C686.3,1229.65,683.47,1229.25,681.07,1229.66z"/>
	<path opacity="0.77" fill="#171311" stroke="#171311" stroke-width="0.394" enable-background="new    " d="M804.25,1280
		c4.35-1.66,8.97-1.21,13.36,0H804.25z"/>
</g>
</svg>
